<svg version="1.2" xmlns="http://www.w3.org/2000/svg" viewBox="0 0 2430 2340" width="50" height="48"><style>.a{display:none;fill:#00edf9}.b{fill:#929699}.c{fill:#650000}.d{fill:#38d1f4}.e{fill:#3aa2ba}.f{fill:#fff}.g{fill:#ff3334}.h{fill:#ff0d19}</style><path class="a" d="m-831-791h4000v4000h-4000z"/><path class="b" d="m2141.2 33l156 89-0.1-0.1h0.1c46.6 20.3 73.7 73.9 56.3 126.2l-659.3 1976c-35.6 107-147.8 100.9-241.8 75.4l-164.3-45.1-0.1-0.1"/><g style="opacity:.3"><path class="c" d="m2353.5 248.1l-659.3 1976c-35.6 107.1-147.8 100.9-241.7 75.4l-53.4-14.6c78.6-1.7 152-51.9 178.6-131.8l657.4-1976.4c12.8-38.6 1.4-77.9-24.2-104l86.2 49.2h0.1c46.6 20.3 73.7 73.9 56.3 126.2z"/></g><path class="d" d="m2198.6 159.5l-334.1 1004.6-89.2 268.1-56.8 170.8-52.7 158.5-124.6 374.4c-35.6 107.1-155.2 160.7-258.8 116.1l-536.5-230.8c-45.9-19.8-68.7-71.8-51.9-119l76.4-215.6 250.5-706.7 55.1-155.6 55.6-156.8 3.9-10.9 93.3-263.2 92.2-260.2c23-64.8 84.4-108.2 153.2-108.2h627.4c69.7 0 119 68.4 97 134.5z"/><path fill-rule="evenodd" class="c" d="m1358.5 2270.2c-26.3 0-52.6-5.3-77.1-15.9l-536.5-230.8c-47-20.3-70.4-73.9-53.3-122.1l627.1-1769c23.3-65.8 85.8-109.9 155.5-109.9h627.4c34 0 64.9 15.8 84.9 43.5 19.9 27.6 25.2 62 14.4 94.3l-423.2 1272.7-234.1 703.7c-17.2 51.7-55.5 94.1-105.2 116.4-25.4 11.4-52.6 17.1-79.9 17.1zm115.7-2242.7c-67.6 0-128.2 42.8-150.8 106.5l-627.1 1769c-16.2 45.8 6 96.7 50.6 115.9l536.4 230.9c48.8 20.9 104.6 20.5 153-1.3 48.4-21.7 85.8-63 102.5-113.4l323.3-971.8 334.1-1004.5c10.2-30.8 5.2-63.6-13.8-89.9-19-26.3-48.4-41.4-80.8-41.4z"/><g style="opacity:.3"><path class="c" d="m2198.6 159.5l-657.4 1976.4c-30.4 91.5-122.1 143.9-212.8 129.5 68.4-10.9 129.1-58.4 152.8-129.5l657.3-1976.4c22-66.2-27.3-134.5-97.1-134.5h60.1c69.8 0 119.1 68.3 97.1 134.5z"/></g><path class="e" d="m1716.7 488.8c-20.1 67.3-75.5 110.3-123.8 95.9-48.4-14.4-71.3-80.7-51.2-148 20.1-67.4 75.5-110.3 123.8-95.9 48.3 14.4 71.3 80.7 51.2 148z"/><path class="e" d="m1718.3 806.8l-353.1-72.6c-30-6.2-46.3-38.9-33.1-66.6 9.3-19.7 30.9-30.4 52.2-26l353 72.6c28.7 5.9 45.2 36.2 34.6 63.4-8.4 21.5-31 33.9-53.6 29.2z"/><path class="e" d="m1444.9 1393.7l-345.1-83.6c-29.3-7.1-44.7-39.3-31.8-66.6l0.1-0.1c9.7-20.4 32.3-31.1 54.2-25.8l345 83.7c27.9 6.8 43.5 36.6 33.1 63.4-8.7 22.2-32.4 34.6-55.5 29z"/><path class="e" d="m934.4 1774.6l413.5 141c53.6 18.3 81.3 77.5 61 130.4-20 51.8-78.3 77.4-130 57l-406.2-160.7c-44.8-17.7-67.5-67.8-51.3-113.2 16.4-46 66.7-70.2 113-54.5z"/><path class="e" d="m1255.1 818.6l350.9 72.3c26 5.4 41.4 32.3 32.9 57.5l-88.9 262.4c-7.5 22-30.8 34.5-53.3 28.4l-346.6-93.3c-24.7-6.7-38.6-33.1-30.1-57.3l84.5-241.3c7.3-20.9 28.9-33.1 50.6-28.7z"/><path class="e" d="m1076.1 1370.1l329.8 81.2c30.1 7.4 47.4 39 37.4 68.3l-74.1 219c-9.2 27.2-38.4 42.1-65.8 33.6l-325.6-100.4c-28.6-8.8-44.2-39.7-34.3-68.1l70-199.7c9-25.8 36.1-40.5 62.6-33.9z"/><g style="opacity:.5"><path class="f" d="m1165 692.3l-59.5 167.8 570.1 691.1-52.7 158.4-572.5-693.9-29.5-35.8 55.1-155.6 152.8-430.9 92.2-260.2c23-64.8 84.3-108.2 153.1-108.2h42.3c-68.9 0-130.2 43.4-153.2 108.2l-104.9 295.9 563.3 683.1-89.1 268.1z"/></g><path class="f" d="m1379.4 2266.6c-32 3.6-65.3-0.9-97.1-14.6l-536.4-230.8c-46-19.8-68.7-71.9-52-119l382.1-1077.9-55.1 155.6 29.5 35.8-314.3 886.5c-16.7 47.1 6 99.2 52 119l536.4 230.8c18 7.8 36.5 12.6 54.9 14.6z"/><path class="c" d="m1942.1 25l-42.2 67.7c-13 21-36.1 33.6-60.8 33.2l-254.2-3.8c-22.1-0.3-40.7-16.9-43.4-39l-7.1-58.1"/><path fill-rule="evenodd" class="c" d="m1358.5 2285.2c-28.3 0-56.6-5.7-83.1-17.1l-536.4-230.9c-54.3-23.3-81.3-85.2-61.6-140.9l627.1-1768.9c25.4-71.7 93.6-119.9 169.7-119.9h627.3c39 0 74.4 18.1 97.2 49.7 22.8 31.6 28.8 70.9 16.5 107.9l-657.4 1976.3c-18.5 55.7-59.8 101.4-113.3 125.4-27.3 12.2-56.6 18.4-86 18.4zm-69.2-49.2c45.6 19.6 95.6 19.2 140.8-1.1 45.3-20.3 78.9-57.4 94.5-104.5l657.4-1976.4c8.7-26.1 4.4-54-11.7-76.3-16.1-22.4-41.2-35.2-68.8-35.2h-627.3c-61.3 0-116.2 38.8-136.7 96.6l-627.1 1768.9c-13.6 38.4 5.1 81 42.4 97.1z"/><path class="c" d="m1554.9 2333.4c-35.8 0-72.8-7.7-107-17l-164.4-45.1q-1.7-0.5-3.2-1.3c-8.7-4.3-12.2-14.8-7.9-23.5 3.9-7.8 13-11.5 21.1-8.8l163.6 45c122.2 33.1 186.2 14.3 220.8-64.9l659-1975.2c13.7-41.1-6.5-86.7-45.9-104.3q-0.8-0.3-1.6-0.7-0.5-0.2-1-0.5l-155.8-88.9c-8.4-4.8-11.4-15.5-6.6-23.9 4.8-8.4 15.5-11.3 23.9-6.5l155 88.4c56.9 25.1 84.9 88.3 65.2 147.5l-659.3 1975.9q-0.2 0.7-0.5 1.4c-34.1 79-93 102.4-155.4 102.4z"/><path class="c" d="m2147.2 632.1c-1.7 0-3.4-0.3-5.1-0.8-8.5-2.9-13-12-10.2-20.5l93-276.9c2.8-8.5 11.9-13 20.4-10.2 8.5 2.8 13 12 10.2 20.4l-93 277c-2.3 6.8-8.6 11-15.3 11z"/><path class="c" d="m2147.2 632.1q-2.6 0-5.1-0.8c-8.5-2.9-13-12-10.2-20.5l93-276.9c2.8-8.5 12-13 20.4-10.2 8.5 2.8 13 12 10.2 20.4l-93 277c-2.3 6.7-8.6 11-15.3 11z"/><g style="opacity:.3"><path class="c" d="m783.4 1741.6h0.1-0.2z"/><path class="c" d="m793.6 1743.7c-3.3-0.5-6.8-1.2-10.1-2.1z"/><path class="c" d="m782.6 1741.4l0.7 0.1q0 0 0 0z"/><path class="c" d="m1195.5 1449.6l-53.3 22.3c-37.3 15.5-64.6 48.3-73.1 87.8l-31.9 148.7c-9 41.8-45.4 66.8-83 66.8-7.6 0-15.2-1.1-22.6-3.2l-137.9-28.4-10.2-2v-0.1h-0.2c-10.9-2.9-21.6-8.2-31.1-16.1l250.6-706.7 55.1-155.6 55.6-156.8c20.9 15.6 37.2 37.9 44.9 65.3l134.2 477.1c23.2 81.9-18.6 168.1-97.1 200.9z"/></g><path class="g" d="m875.1 1628.4l-148.9-30.6 11 2.3c-3.4-0.5-6.8-1.2-10.1-2.1h-0.1c-12.9-3.5-25.3-10.2-36.2-20.5l-61.5-58.6 74.3-25.9z"/><path fill-rule="evenodd" class="c" d="m885 1633l-148.3-30.5h-0.2c-3.7-0.6-6.9-1.2-10-2.1l-0.8-0.2c-13.4-3.6-25.8-10.7-36.6-20.9l-64.5-61.4 79.4-27.7zm-157.6-37.5l138 28.3-162.3-128-69.1 24.1 58.6 55.8c10.1 9.6 21.9 16.3 34.8 19.8z"/><g style="opacity:.3"><path class="c" d="m875.1 1628.4l-148.9-30.6 11 2.3c-3.4-0.5-6.8-1.2-10.1-2.1h-0.1c-12.9-3.5-25.3-10.2-36.2-20.5l-61.5-58.6 74.3-25.9z"/></g><path class="h" d="m419.8 1565l-138.6-28v-0.1c-10.4-2.1-20.6-5.3-30.4-9.3-49.3-20-89.6-61.8-105.3-117.7l-108.4-384.7c-28-99.7 22.7-204.6 118.2-244.4l631.5-263.7c25.8-10.8 52.9-12.1 77.7-5.8l153 31.8"/><g style="opacity:.5"><path class="f" d="m1017.5 543.1l-7.6 13-105.4-21.9c-9.8-2.5-20-3.8-30.3-3.8-15.7 0-31.7 3-47.3 9.6l-631.5 263.7c-95.6 39.8-146.3 144.7-118.2 244.3l108.3 384.8c11.1 39.4 34.4 71.8 64.4 94.5-48.9-20.2-88.8-61.8-104.4-117.4l-108.4-384.7c-28-99.7 22.7-204.6 118.2-244.4l631.5-263.7c15.6-6.5 31.7-9.6 47.4-9.6 10.3 0 20.5 1.3 30.3 3.8z"/></g><path class="h" d="m1139 1306l-53.3 22.3c-37.2 15.6-64.5 48.3-73 87.8l-31.9 148.7c-13.9 64.5-93 88.9-140.8 43.4l-94.5-90c-21.2-20.2-52.3-26-79.4-14.7l-129.6 54.1c-16.8 7.1-34 11.3-51.1 13-84.2 8.6-166.5-43.8-190.7-129.9l-108.4-384.8c-28-99.7 22.7-204.5 118.2-244.4l631.5-263.7c35.1-14.6 72.6-11.8 103.5 4 29.3 15 52.7 41.6 62.4 76.2l134.3 477.1c23.1 81.9-18.6 168.2-97.2 200.9z"/><path fill-rule="evenodd" class="c" d="m897.7 1649.1c-25.6 0-50.4-9.7-69.8-28.2l-94.5-90.1c-16.2-15.4-39.9-19.7-60.5-11.1l-129.7 54.1c-40.8 17.1-84.8 19.9-127.3 8.3l-138.2-28c-11.5-2.4-22.8-5.9-33.6-10.3-56.7-23-98.9-70.1-115.5-129.1l-108.3-384.8c-30.4-108 24.7-222.1 128.3-265.3l631.5-263.7c17.3-7.2 35.5-10.9 54.1-10.9 11.6 0 23.1 1.5 34.3 4.3l132.6 27.6c56.2 7.1 102.3 46.9 117.7 101.4l134.2 477.1c25.5 90.3-20.6 185.6-107.2 221.8l-53.3 22.3c-32 13.3-55.4 41.5-62.7 75.3l-31.9 148.7c-7.9 36.6-33.9 65-69.6 76-10.2 3.1-20.4 4.6-30.6 4.6zm-203.1-168.8c23 0 45.6 8.7 62.9 25.2l94.6 90.1c17.8 16.9 42.4 22.7 65.8 15.4 23.5-7.2 40.6-25.8 45.7-49.8l32-148.8c9.7-45 40.8-82.5 83.4-100.2l53.3-22.3c70.3-29.3 107.7-106.8 87.1-180.1l-134.3-477c-11.6-41-46.3-70.9-88.6-76.2q-0.9-0.1-1.8-0.3l-133.7-27.8q-0.5-0.1-0.9-0.2c-21.7-5.6-45.3-3.9-66.5 4.9l-631.5 263.7c-87.3 36.4-133.7 132.5-108.1 223.5l108.3 384.8c13.7 48.5 48.3 87.2 95 106.2 8.9 3.6 18.1 6.5 27.5 8.4l138.1 28c0.5 0.1 1.1 0.3 1.6 0.4 35.1 9.7 71.5 7.4 105.2-6.7l129.7-54.1c11.3-4.8 23.3-7.1 35.2-7.1z"/><path class="c" d="m875.1 1645.9q-1.7 0-3.5-0.3l-137-28.2c-4.1-0.6-8.2-1.4-12.1-2.5q0 0-0.1 0-1.1-0.3-2.2-0.7c-15.4-4.5-29.3-12.5-41.4-24l-61.6-58.6c-7-6.7-7.3-17.8-0.6-24.8 6.7-7 17.7-7.2 24.7-0.6l61.6 58.6c8.2 7.8 17.6 13.2 28 16.1l147.8 30.4c9.4 1.9 15.5 11.2 13.6 20.7-1.7 8.2-9 13.9-17.2 13.9z"/><g style="opacity:.3"><path class="c" d="m1241.9 1164.5c-16.2 40.8-48.3 74.9-91.4 92.9l-53.3 22.3c-37.3 15.5-64.6 48.3-73 87.8l-7.2 33.6c-1.7 4.9-3.2 9.9-4.3 15l-24.2 112.7c-20.7 54.9-92.5 73.2-137 30.8l-94.6-90.1c-21.2-20.1-52.3-25.9-79.3-14.6l-94.6 39.5c309.5-258.3 471.2-569.1 456.5-942.6 29.3 15 52.7 41.6 62.4 76.2l134.3 477.1c5.6 19.8 7.4 39.9 5.7 59.4z"/></g><path class="f" d="m811.5 1298.6c-396.2-12.9-341.8-381.9-88.7-321.9 91.6-236 423.4-52.9 88.7 321.9z"/><path class="c" d="m467.4 1586.5c-29 0-58-6.5-84.7-19.4-50-24.2-87.4-68.8-102.5-122.4l-108.3-384.8c-30.1-106.8 24.5-219.5 126.8-262.2l631.6-263.7c36.4-15.2 77.7-14.1 113.2 3 35.6 17.2 62.1 48.9 72.9 86.9 2.2 8-2.4 16.3-10.4 18.6-7.9 2.2-16.3-2.4-18.5-10.4-8.4-29.8-29.2-54.6-57-68-27.8-13.5-60.2-14.4-88.7-2.4l-631.5 263.6c-88.4 36.9-135.5 134.3-109.5 226.5l108.3 384.8c12.7 45.3 44.3 83 86.7 103.5 42.3 20.5 91.5 21.8 134.9 3.7 7.7-3.2 16.4 0.4 19.6 8.1 3.2 7.6-0.4 16.4-8 19.6-24 10-49.5 15-74.9 15z"/><g style="opacity:.2"><path class="f" d="m419.6 893.3l-90.6 202.3c-10.2 22.9-43.4 21.6-51.4-2.1-32.9-98 6.1-199.7 106.6-237.3 23.2-8.7 45.5 14.5 35.4 37.1z"/></g><g style="opacity:.2"><path class="f" d="m326.9 1157.7c50.6 14.1 56.8 50 30.2 102-7.1 13.9-27.6 11.5-31.5-3.6l-19.6-77.9c-3.2-12.6 8.4-23.9 20.9-20.5z"/></g><g style="opacity:.3;display:none"><path class="c" d="m1937 2792.6c0 63.2-346.1 114.4-773 114.4-426.9 0-773-51.2-773-114.4 0-63.1 346.1-114.3 773-114.3 426.9 0 773 51.2 773 114.3z"/></g></svg>